<svg xmlns="http://www.w3.org/2000/svg" viewBox="0 0 500 500"><g id="freepik--background-complete--inject-47"><polygon points="253.24 23.75 253.24 72.38 267.21 72.38 267.21 84.17 279 72.38 341.79 72.38 341.79 23.75 253.24 23.75" style="fill:#ebebeb"></polygon><path d="M268.25,52.93V43.2a.91.91,0,0,1,.91-.91h2.34a3.14,3.14,0,0,1,2.51,5,3.57,3.57,0,0,1,1.66,3,3.53,3.53,0,0,1-3.53,3.54h-3A.91.91,0,0,1,268.25,52.93Zm1.83-6.17h1.42a1.32,1.32,0,0,0,1.3-1.34,1.29,1.29,0,0,0-1.3-1.3h-1.42Zm0,5.24h2.06a1.71,1.71,0,0,0,0-3.41h-2.06Z" style="fill:#fff"></path><path d="M287.5,52.46a.92.92,0,0,1-.58,1.16,1.21,1.21,0,0,1-.36.05h0a1.18,1.18,0,0,1-.64-.18,1.75,1.75,0,0,1-.53-.58,4.46,4.46,0,0,1-.34-2,1.5,1.5,0,0,0-.2-.71,1.65,1.65,0,0,0-.5-.48,2.94,2.94,0,0,0-.92-.39h-1.94v3.58a.92.92,0,0,1-.93.9.9.9,0,0,1-.91-.9V43.2a.9.9,0,0,1,.91-.91h2.95A3.53,3.53,0,0,1,287,45.84a3.47,3.47,0,0,1-1.29,2.7,2.41,2.41,0,0,1,.58.61,3.13,3.13,0,0,1,.55,1.78,4.16,4.16,0,0,0,.06,1A.9.9,0,0,1,287.5,52.46Zm-2.31-6.62a1.7,1.7,0,0,0-1.7-1.72h-2v3.4h2A1.69,1.69,0,0,0,285.19,45.84Z" style="fill:#fff"></path><path d="M297.88,51.11h-4l-.81,2.14a.91.91,0,0,1-.85.58.83.83,0,0,1-.32,0,.92.92,0,0,1-.54-1.18L295,42.88a.92.92,0,0,1,.88-.57.9.9,0,0,1,.87.57l3.64,9.72a.92.92,0,0,1-.54,1.18.75.75,0,0,1-.31,0,.87.87,0,0,1-.84-.58Zm-.68-1.81-1.33-3.55-1.34,3.55Z" style="fill:#fff"></path><path d="M306.28,52.93a.91.91,0,0,1-.89.9.9.9,0,0,1-.91-.9v-9.6a.9.9,0,0,1,.36-.76.91.91,0,0,1,1.26.2l5.32,7.37V43.35a.9.9,0,0,1,.89-.89.91.91,0,0,1,.91.89v9.58a.91.91,0,0,1-.91.9.87.87,0,0,1-.67-.33.28.28,0,0,1-.09-.1l-5.27-7.32Z" style="fill:#fff"></path><path d="M318.17,52.93V43.2a.9.9,0,0,1,.91-.91H321a5.77,5.77,0,0,1,0,11.54h-1.95A.9.9,0,0,1,318.17,52.93ZM320,52h1a3.94,3.94,0,0,0,0-7.88h-1Z" style="fill:#fff"></path><polygon points="247.05 457.33 247.05 353.26 276.95 353.26 276.95 328.04 302.17 353.26 436.52 353.26 436.52 457.33 247.05 457.33" style="fill:#fff"></polygon><path d="M247.05,457.33c-.1-1-.51-103.69-.58-104.65h.58l29.9-.1-.69.68L276.17,328v-1.88l1.34,1.33,25.29,25.16c-3.26-.76,134.45-.09,133.73-.37h1v1l-.12,104.07v.86h-.86c-47.23-.17-142.25-.54-189.47-.85Zm0,0c47.22-.32,142.27-.69,189.47-.86l-.85.86-.12-104.07,1,1-134.7-.11-.26-.26L276.4,328.59l1.32-.55-.09,25.22V354H277l-29.9-.11.59-.58-.59,104.07Z" style="fill:#ebebeb"></path><circle cx="383.96" cy="405.3" r="8.45" transform="translate(-147.83 235.31) rotate(-28.82)" style="fill:#ebebeb"></circle><circle cx="341.79" cy="405.3" r="8.45" transform="translate(-128.25 160.04) rotate(-22.3)" style="fill:#ebebeb"></circle><circle cx="299.61" cy="405.3" r="8.45" transform="translate(-47.13 39.5) rotate(-6.99)" style="fill:#ebebeb"></circle><ellipse cx="81.57" cy="124.31" rx="45.3" ry="46" transform="translate(-36.31 33.7) rotate(-19.18)" style="fill:#ebebeb"></ellipse><path d="M46.18,123.73c-.13,19.78,15.61,36.08,35.16,36.4A35.19,35.19,0,0,0,117,124.89c.13-19.79-15.62-36.08-35.16-36.4A35.19,35.19,0,0,0,46.18,123.73Z" style="fill:#fff"></path><path d="M56.06,123.89a26,26,0,0,0,25.35,26.24,25.36,25.36,0,0,0,25.68-25.41A26,26,0,0,0,81.74,98.48,25.37,25.37,0,0,0,56.06,123.89Z" style="fill:#ebebeb"></path><path d="M66,124.05a15.81,15.81,0,0,0,15.43,16,15.45,15.45,0,0,0,15.64-15.47,15.82,15.82,0,0,0-15.43-16A15.45,15.45,0,0,0,66,124.05Z" style="fill:#fff"></path><path d="M74.66,124.19a7,7,0,0,0,6.87,7.12,6.88,6.88,0,0,0,7-6.89,7,7,0,0,0-6.87-7.11A6.87,6.87,0,0,0,74.66,124.19Z" style="fill:#ebebeb"></path><polygon points="81.94 124.46 129.44 99.48 129.08 98.79 81.57 123.77 81.94 124.46" style="fill:#ebebeb"></polygon><polygon points="132.25 100.69 132.07 100.63 129.03 99.69 135.03 96.55 138.28 97.54 132.25 100.69" style="fill:#ebebeb"></polygon><path d="M135.75,92.7l-1.08,3.16-6,3.14a14.78,14.78,0,0,0,1.06-3.15Z" style="fill:#ebebeb"></path><polygon points="80.12 123.53 81.37 125.78 84.71 125.5 82.52 123.71 82.3 120.89 80.12 123.53" style="fill:#ebebeb"></polygon><rect x="53.63" y="370.26" width="74.41" height="47.19" transform="translate(-130.67 55.76) rotate(-20.24)" style="fill:#ebebeb"></rect><path d="M117.58,358.84c-1.83,3.74-3.75,7.38-5.61,11.08s-3.82,7.31-5.76,10.94q-3,5.68-6.1,11.32l-.18.35-5.47,10-.28.47-.5-.18-10.61-4-.38-.14c-4-1.52-8-3.06-12-4.65Q65,391.7,59.22,389.38c-3.82-1.61-7.64-3.13-11.46-4.79,3.85,1.21,7.69,2.54,11.53,3.82s7.7,2.64,11.54,4c4.27,1.51,8.56,3.05,12.84,4.63h0l9.63,3.53c1.66-3,3.33-6,5-8.93,0,0,0,0,0,0,2.24-4,4.48-7.92,6.76-11.86,2-3.52,4.08-7,6.16-10.52S115.43,362.26,117.58,358.84Z" style="fill:#fff"></path><path d="M84.15,398a.39.39,0,0,1-.06.11l-.75,1.34q-1.82,3.18-3.8,6.24c-1.6,2.52-3.27,5-5,7.44s-3.44,4.86-5.24,7.24-3.64,4.73-5.6,7c1.43-2.64,3-5.18,4.59-7.69s3.29-5,5-7.44,3.44-4.87,5.24-7.25c1.44-1.9,2.91-3.79,4.45-5.62q.53-.63,1.08-1.26S84.13,398.06,84.15,398Z" style="fill:#fff"></path><path d="M133.22,401.76c-3-.44-5.9-1-8.81-1.68s-5.8-1.37-8.69-2.1-5.75-1.56-8.6-2.44c-2.32-.7-4.64-1.44-6.92-2.28l-1.46-.53-.11-.05.12,0,1.65.27c2.36.39,4.7.88,7,1.39,2.91.64,5.8,1.36,8.68,2.11s5.76,1.55,8.61,2.43S130.42,400.68,133.22,401.76Z" style="fill:#fff"></path><rect x="388.1" y="164.87" width="47.19" height="74.41" transform="translate(145.57 575.58) rotate(-80.67)" style="fill:#ebebeb"></rect><path d="M452.24,184.82c-3.43,2.35-6.9,4.57-10.35,6.87s-6.93,4.47-10.4,6.68q-5.44,3.45-10.9,6.82a3.78,3.78,0,0,1-.33.22c-3.21,2-6.44,4-9.66,6l-.48.28-.35-.41q-3.63-4.36-7.24-8.74a2.6,2.6,0,0,1-.25-.31c-2.74-3.3-5.45-6.61-8.15-10-2.58-3.18-5.15-6.41-7.72-9.63s-5.1-6.5-7.6-9.82c2.75,3,5.43,6,8.14,9s5.39,6.1,8.05,9.19q4.47,5.11,8.89,10.36l0,0,6.63,7.83c2.92-1.77,5.85-3.56,8.77-5.3,0,0,0,0,0,0,3.91-2.35,7.81-4.69,11.74-7,3.51-2.05,7-4.1,10.55-6.11S448.68,186.73,452.24,184.82Z" style="fill:#fff"></path><path d="M403.83,202.4l-.11.07-1.31.79c-2.1,1.25-4.23,2.43-6.39,3.56-2.63,1.4-5.3,2.72-8,4s-5.38,2.52-8.12,3.7-5.5,2.33-8.33,3.32c2.55-1.58,5.16-3,7.79-4.41s5.32-2.72,8-4,5.4-2.54,8.14-3.72c2.18-.94,4.4-1.86,6.64-2.69l1.56-.57Z" style="fill:#fff"></path><path d="M444.66,229.87c-2.36-1.85-4.62-3.82-6.83-5.81s-4.37-4.05-6.52-6.11-4.24-4.2-6.29-6.37c-1.67-1.76-3.31-3.55-4.88-5.4l-1-1.18-.08-.1.11.08c.44.35.87.69,1.29,1.05,1.86,1.5,3.65,3.08,5.43,4.67,2.22,2,4.38,4.05,6.52,6.12s4.23,4.2,6.28,6.37S442.75,227.55,444.66,229.87Z" style="fill:#fff"></path></g><g id="freepik--Character--inject-47"><polygon points="156.92 454.43 189.19 450.44 177.63 357 136.8 362.05 156.92 454.43" style="fill:#FFC727"></polygon><polygon points="136.81 362.05 144.47 397.29 156.93 454.44 189.2 450.45 177.64 357 136.81 362.05" style="fill:#FFC727"></polygon><polygon points="136.81 362.05 144.47 397.29 156.93 454.44 189.2 450.45 177.64 357 136.81 362.05" style="fill:#fff;opacity:0.2"></polygon><polygon points="136.81 362.05 141.86 385.29 181.16 385.46 177.64 357 136.81 362.05" style="opacity:0.1"></polygon><rect x="131.94" y="334.94" width="51.19" height="38.89" transform="translate(357.38 686.75) rotate(172.95)" style="fill:#FFC727"></rect><rect x="131.94" y="334.94" width="51.19" height="38.89" transform="translate(357.38 686.75) rotate(172.95)" style="opacity:0.2"></rect><polygon points="93.99 328.34 133.94 327.4 126.22 264.95 87.24 273.77 93.99 328.34" style="fill:#FFC727"></polygon><g style="opacity:0.2"><polygon points="93.99 328.34 133.94 327.4 126.22 264.95 87.24 273.77 93.99 328.34" style="fill:#fff"></polygon></g><polygon points="144.99 250.07 156.38 342.23 223.58 341.98 384.55 379.57 357.17 158.25 210.22 233.95 144.99 250.07" style="fill:#FFC727"></polygon><polygon points="144.99 250.07 156.38 342.23 223.58 341.98 384.55 379.57 357.17 158.25 210.22 233.95 144.99 250.07" style="fill:#fff;opacity:0.2"></polygon><path d="M384.55,379.59,223.59,342l-67.2.26-2.93-23.67c19.87,1.91,72,6.89,73.07,7.25Z" style="opacity:0.1"></path><ellipse cx="374.45" cy="268.47" rx="36.02" ry="112.06" transform="translate(-30.12 47.99) rotate(-7.05)" style="fill:#FFC727"></ellipse><path d="M346.79,270c6.75,54.53,25.32,97.11,41.48,95.11s23.8-47.82,17.06-102.35S380,165.61,363.85,167.6,340.05,215.43,346.79,270Z" style="opacity:0.2"></path><path d="M351.56,269.37c.9,7.26,2,14.3,3.31,21.05a22.24,22.24,0,0,0,33.88-21.6l-1.29-10.44a22.23,22.23,0,0,0-38-12.84C349.85,253.21,350.55,261.2,351.56,269.37Z" style="fill:#FFC727"></path><path d="M351.56,269.37c.9,7.26,2,14.3,3.31,21.05a22.24,22.24,0,0,0,33.88-21.6l-1.29-10.44a22.23,22.23,0,0,0-38-12.84C349.85,253.21,350.55,261.2,351.56,269.37Z" style="fill:#fff;opacity:0.2"></path><polygon points="121.3 351.76 198.56 349.94 183.62 229.17 108.25 246.24 121.3 351.76" style="fill:#FFC727"></polygon><g style="opacity:0.1"><polygon points="121.3 351.76 198.56 349.94 183.62 229.17 108.25 246.24 121.3 351.76"></polygon></g><path d="M349.63,166c-5.22,7.55-7.87,16.54-10.06,25.39a173.18,173.18,0,0,0-3.85,27.19c-.41,4.57-.41,9.15-.57,13.73.1,4.58.06,9.16.26,13.73s.4,9.15.82,13.71.77,9.12,1.29,13.67c2.21,18.15,5.44,36.26,10.92,53.77a155.62,155.62,0,0,0,10.36,25.44c4.42,8,9.52,15.91,16.9,21.41-7-5.94-11.76-13.9-15.75-22a156.07,156.07,0,0,1-9.58-25.45,318.07,318.07,0,0,1-10.24-53.49c-2.14-18-3.3-36.27-2.41-54.41a174,174,0,0,1,3.1-27C342.57,182.82,344.92,173.88,349.63,166Z" style="opacity:0.2"></path><path d="M257.14,163.46c-2.15,11.75-17.53,14.28-19.88,11.76-9.54-10.19-19.67-30-30.64-52.12-8.58-17.28-3.06-17.83,4.4-13.22C228.37,120.61,258.3,157.15,257.14,163.46Z" style="fill:#FFC727"></path><path d="M257.14,163.47c-2.15,11.74-17.52,14.27-19.88,11.75-9.54-10.19-19.66-30-30.64-52.12-4.15-8.37-5.17-13.61-3.54-15.16l53.84,53.19A5.42,5.42,0,0,1,257.14,163.47Z" style="opacity:0.1"></path><path d="M231,164.05c-2.12-7.46,4.11-18.69,18.56-45.81,2-3.76,32.26,6.28,30.33,10.4-2.43,5.18-15.1,24.63-17.58,27.28C250.2,168.88,232.45,169.1,231,164.05Z" style="fill:#eb9481"></path><path d="M268.64,138.81s10.74-4.12,17.63-7.14c3.84-1.69,10.18-5.17,12.44-7.7,3.38-3.79,15.09-21.78,10.78-24.71-3.89-2.66-12,14.08-12,14.08s9.67-16.17,4.39-18.5S290,112.63,290,112.63s9.56-16.83,3.73-18.38C289.32,93.08,282.28,111,282.28,111s8.11-14.52,3.64-15.92c-4.94-1.55-12.47,14.56-12.47,14.56-12-1.64-21.22,4-24.55,9.87C248.26,120.63,268.64,138.81,268.64,138.81Z" style="fill:#eb9481"></path><path d="M295,118.37c8-11.37,8.48-19.4,8.43-19.19-1.31,5-4.9,12-5.94,14s-1.53,3.18-2.56,5.14C294.85,118.38,294.92,118.41,295,118.37Z" style="fill:#263238"></path><path d="M287.38,115.54a47.59,47.59,0,0,0,7.78-14.86c0-.21-.05-.18-.15,0-1.25,2.52-6.33,12.35-7.69,14.81C287.3,115.55,287.35,115.57,287.38,115.54Z" style="fill:#263238"></path><path d="M280.69,113.54a35.08,35.08,0,0,0,5.69-11.68c.06-.2-.1-.15-.19,0-1.81,3.91-3.21,7-5.62,11.55C280.53,113.53,280.64,113.62,280.69,113.54Z" style="fill:#263238"></path><path d="M273.32,143.2l-32.15-15.42S226,158.62,229.52,165.43c1.58,3,7.1,10.95,13.3,11.16C257.07,177.08,273.32,143.2,273.32,143.2Z" style="fill:#FFC727"></path><path d="M239.31,135.8c3.56,1.87,7.2,3.55,10.85,5.22s7.31,3.35,11,4.93c2.09.89,4.17,1.8,6.29,2.62.06,0,.1-.07.05-.1-3.55-1.87-7.2-3.57-10.83-5.26s-7.31-3.35-11-5c-2.08-.91-4.17-1.79-6.29-2.61C239.3,135.58,239.21,135.74,239.31,135.8Z" style="fill:#263238"></path><path d="M241.57,127.73c-.31-.22-.76-.49-.8-.41-1,2-1.87,4.23-2.7,6.31s-1.59,4.12-2.33,6.2c-.4,1.12-.78,2.25-1.12,3.38a12.73,12.73,0,0,0-2.07,4.27c0,.08.11.12.13,0a15.75,15.75,0,0,1,1.81-3.85,28.75,28.75,0,0,0-1.32,8.55,0,0,0,0,0,0,0c0-4.33,1.89-8.52,3.33-12.52.72-2,1.49-4,2.26-6s1.63-3.94,2.38-5.93l.42.2C241.66,128,241.63,127.78,241.57,127.73Z" style="fill:#263238"></path><path d="M206.12,108.94c6,3.65,16.68,19.68,21.81,38.71A163.24,163.24,0,0,1,231,163.8c3,19.88,7,42.17,7.41,49.59.51,9.89-16.73,27.06-25.21,24.92s-22.44,1.53-7.58-54.84c3.9-14.81,8.25-47.28,3.32-65.1A96.89,96.89,0,0,0,206.12,108.94Z" style="fill:#FFC727"></path><path d="M294.42,353.68c-2.77-.59-69.06-39.62-70.65-42.71-.61-1.17,4.52-11.15,11-23,1.41-2.57,2.88-5.21,4.39-7.89,9.78-17.38,20.57-35.6,20.57-35.6l44.42,26-21.79,34.89L277.63,313s18.7,26.3,20.07,29.87S297.2,354.27,294.42,353.68Z" style="fill:#eb9481"></path><path d="M294.42,353.68c-2.77-.59-69.06-39.62-70.65-42.71-.53-1,3.39-8.91,8.8-18.92h0c2.58,3.94,41.07,37.24,53.83,40.42,5.21,1.3-2.87-11.08-3.21-11.61l0,0c5.62,8.05,13.61,19.66,14.49,21.95C299.07,346.4,297.2,354.27,294.42,353.68Z" style="fill:#263238"></path><path d="M283.94,321.89s-5.79-5.12-16.91-.63" style="fill:#263238"></path><path d="M333.53,215.43c-4.17,20.7-47.41,89.81-47.41,89.81l-47.41-28.67,31.86-49.64s-65,7.8-89.72-2.61c-26.44-11.11-22.59-42.78-22.59-42.78l64.35-7.65s1.71,6.05,8.94,5.5c24.92-1.94,58.91-1,72,.42C320.43,181.65,337.36,196.44,333.53,215.43Z" style="fill:#37474f"></path><path d="M285.28,209.59a50.78,50.78,0,0,0-4.21,4.7c-1.44,1.65-2.9,3.28-4.35,4.93l0,.05.81-1.48c1-1.68,1.75-3.42,2.85-5,.06-.1-.08-.21-.15-.11-1.13,1.57-2.41,3-3.4,4.72-.46.79-.91,1.59-1.32,2.4-.23.44-.47.89-.68,1.34-.09.21-.21.43-.28.65-.65.77-1.29,1.54-1.92,2.33-1.38,1.74-2.63,3.6-4,5.33-.08.09.07.19.15.1,1.41-1.62,3-3.11,4.4-4.71s2.84-3.32,4.22-5,2.65-3.34,4-5a52.54,52.54,0,0,0,4.06-5.13C285.41,209.62,285.34,209.54,285.28,209.59Z" style="fill:#263238"></path><path d="M289.17,294.11c-1.24-.94-2.56-1.8-3.85-2.67s-2.55-1.73-3.84-2.58c-2.62-1.74-5.28-3.44-7.94-5.14-5.33-3.42-10.7-6.77-16.08-10.12-3-1.88-6.06-3.7-9.09-5.56-.05,0-.13.06-.07.09q7.72,5.31,15.54,10.49t16,10.22q2.25,1.38,4.53,2.72c1.54.9,3.08,1.86,4.67,2.67C289.14,294.27,289.23,294.16,289.17,294.11Z" style="fill:#263238"></path><path d="M167.11,183.53a33.13,33.13,0,0,0,7.27,23.35,32.28,32.28,0,0,0,9.63,7.79,39.56,39.56,0,0,0,11.82,3.83,157.69,157.69,0,0,0,24.94,2.21q12.55.22,25.08-.75a197.36,197.36,0,0,0,24.85-3.25c2-.43,4.08-.9,6.08-1.46,1-.29,2-.59,3-.92a15.14,15.14,0,0,1,3.08-.9,4.2,4.2,0,0,1,1.72.08,1.9,1.9,0,0,1,1.32,1.33,3,3,0,0,1,.1.89,2.53,2.53,0,0,1-.21.88c-.2.52-.43,1-.67,1.47-1,1.87-2.05,3.68-3.12,5.48-8.72,14.33-18.06,28.25-27.42,42.15q6.85-10.54,13.58-21.15c4.49-7.07,9-14.15,13.24-21.35,1.05-1.81,2.1-3.62,3-5.47.23-.47.46-.93.64-1.4a1.84,1.84,0,0,0,.15-.63,2,2,0,0,0-.07-.66c-.19-.84-1.24-1-2.2-.85a14.77,14.77,0,0,0-2.93.88c-1,.34-2,.65-3,.94-2,.57-4.08,1-6.13,1.49a198,198,0,0,1-25,3.35q-12.55.91-25.16.66a150.46,150.46,0,0,1-25.06-2.35c-4.1-.86-8.27-1.88-12-4a32.44,32.44,0,0,1-9.7-8A31.49,31.49,0,0,1,168.32,196,34.09,34.09,0,0,1,167.11,183.53Z" style="fill:#263238"></path><path d="M233,358.32c-2.59-1.15-59.3-53.13-60.21-56.48-.35-1.27,6.73-10,15.6-20.24,1.91-2.22,3.9-4.5,5.94-6.8,13.18-15,27.53-30.54,27.53-30.54l38,34.66L231.3,308.51,225,315s12.81,29.61,13.41,33.39S235.57,359.47,233,358.32Z" style="fill:#eb9481"></path><path d="M233,358.32c-2.58-1.15-59.29-53.13-60.2-56.48-.31-1.12,5.16-8,12.54-16.68h0c1.7,4.39,32.41,45,44.22,50.74,4.84,2.36-.49-11.43-.72-12l0,0c3.82,9,9.22,22.07,9.6,24.49C239,352.17,235.57,359.48,233,358.32Z" style="fill:#263238"></path><path d="M229.34,325s-4.59-6.21-16.41-4.13" style="fill:#263238"></path><path d="M304.64,220.26c-4.17,20.7-59.73,77.5-66.15,84L237,305.76l-40.36-35.61.54-.6,30.61-33.7s-47.14,16-67.33-13.18c-8-11.59-2.23-41.13-2.23-41.13l51.7-5.93s.88,8.85,8.11,8.29c24.93-1.94,44.52-3.78,57.61-2.36C292.56,183.38,308.47,201.27,304.64,220.26Z" style="fill:#37474f"></path><path d="M219.48,183.79c16-1.53,32.1-2.86,48.24-2.84,2,0,4,.07,6.06.2a38.94,38.94,0,0,1,6.05.76,19.53,19.53,0,0,1,2.91,1c.94.39,1.87.8,2.78,1.26a40.6,40.6,0,0,1,5.24,3.11,37.15,37.15,0,0,1,8.77,8.43,31,31,0,0,1,5.2,11,31.85,31.85,0,0,1,.87,6.06c0,.51,0,1,0,1.53s0,1,0,1.54a22.24,22.24,0,0,1-.47,3,47.61,47.61,0,0,1-4.52,11.28,150.34,150.34,0,0,1-13.39,20.16c-4.92,6.39-10.11,12.56-15.44,18.6s-10.87,11.9-16.46,17.7c5.48-5.9,10.89-11.87,16.13-18s10.38-12.3,15.22-18.73a157.8,157.8,0,0,0,13.22-20.12,46.56,46.56,0,0,0,4.4-11.09,20.8,20.8,0,0,0,.44-2.92,26.78,26.78,0,0,0,0-3,30.67,30.67,0,0,0-.86-5.88,30.1,30.1,0,0,0-5-10.71,36.07,36.07,0,0,0-8.54-8.27,40.21,40.21,0,0,0-5.13-3.07c-.89-.45-1.79-.86-2.72-1.24a18.42,18.42,0,0,0-2.79-1,40.12,40.12,0,0,0-5.92-.78c-2-.14-4-.21-6-.25-8-.13-16.09.19-24.13.59S227.5,183.14,219.48,183.79Z" style="fill:#263238"></path><path d="M244.46,215.91a49.29,49.29,0,0,0-4.2,4.69c-1.45,1.65-2.91,3.28-4.35,4.93l0,.05c.27-.49.53-1,.81-1.48.95-1.67,1.74-3.41,2.84-5a.09.09,0,0,0-.15-.11c-1.12,1.58-2.41,3.06-3.4,4.73-.46.78-.9,1.58-1.32,2.39-.23.45-.46.89-.67,1.34a6.58,6.58,0,0,0-.29.66c-.65.76-1.29,1.54-1.91,2.32-1.39,1.74-2.64,3.6-4,5.33-.07.09.08.19.15.1,1.41-1.61,3-3.1,4.4-4.71s2.85-3.32,4.22-5,2.66-3.33,4-5a53.78,53.78,0,0,0,4.05-5.14C244.6,215.94,244.52,215.85,244.46,215.91Z" style="fill:#263238"></path><path d="M242.19,296.38c-1.06-1.14-2.23-2.21-3.35-3.29s-2.22-2.13-3.35-3.18c-2.29-2.16-4.63-4.28-7-6.41-4.67-4.26-9.41-8.47-14.15-12.68-2.65-2.36-5.35-4.67-8-7-.05,0-.14,0-.09.08q6.72,6.53,13.56,12.95t14.08,12.78c1.32,1.16,2.66,2.3,4,3.44s2.72,2.35,4.15,3.42C242.14,296.53,242.24,296.44,242.19,296.38Z" style="fill:#263238"></path><path d="M165.27,184.39a52.93,52.93,0,0,0-1,13.75,36.91,36.91,0,0,0,3.2,13.31,24.37,24.37,0,0,0,8.86,10.19,29.72,29.72,0,0,0,12.87,4.24A70.08,70.08,0,0,0,203,226a129,129,0,0,0,13.67-1.87,198.51,198.51,0,0,0,26.71-6.95l.33-.11.15.29a10,10,0,0,1,1,3.54,11.58,11.58,0,0,1-.22,3.62,13.75,13.75,0,0,1-1.25,3.4,26,26,0,0,1-2,2.94c-2.94,3.69-6.1,7.18-9.26,10.66s-6.4,6.9-9.65,10.28-6.53,6.77-9.83,10.12q4.84-5.13,9.61-10.32c3.17-3.47,6.34-6.94,9.47-10.44s6.23-7,9.1-10.73a24.93,24.93,0,0,0,1.95-2.86,13.7,13.7,0,0,0,1.16-3.21,10.29,10.29,0,0,0-.7-6.6l.48.17A197.16,197.16,0,0,1,216.78,225,129.84,129.84,0,0,1,203,226.84a71.06,71.06,0,0,1-13.91-.18A29.66,29.66,0,0,1,176,222.2a24.92,24.92,0,0,1-9-10.54,36,36,0,0,1-3-13.5A52.61,52.61,0,0,1,165.27,184.39Z" style="fill:#263238"></path><path d="M187.43,183.74c-.47,2.43-1.09,4.84-1.77,7.22A17.2,17.2,0,0,1,183,197a13.75,13.75,0,0,1-5,3.7,30.12,30.12,0,0,1-3.4,1.36,24.61,24.61,0,0,0-3.49,1.27.24.24,0,0,0,.09.45,15.92,15.92,0,0,0,3.88-.54,23.71,23.71,0,0,0,3.62-1.12,13.5,13.5,0,0,0,5.46-4.07,16.09,16.09,0,0,0,2.66-6.58,40.14,40.14,0,0,0,.95-7.72A.16.16,0,0,0,187.43,183.74Z" style="fill:#263238"></path><path d="M157.29,183.4,225.4,181l-5-25.5s5.64-7.37,4.25-15.1c-1.53-8.46-17.61-29.48-19-30.65-5.35-4.69-10.17-6.43-14.65-3.13C175.43,118.14,157.29,183.4,157.29,183.4Z" style="fill:#FFC727"></path><path d="M211.27,152.93a62.63,62.63,0,0,0-9,1.81c-1.45.43-2.88.93-4.31,1.46-.71.26-1.43.5-2.15.73a9.66,9.66,0,0,1-2.31.52c-.07,0-.07.11,0,.11a15.22,15.22,0,0,0,2.24-.12,15.61,15.61,0,0,0,2.13-.48c1.48-.42,2.95-.91,4.43-1.35,3-.88,6-1.76,9-2.43C211.46,153.15,211.41,152.91,211.27,152.93Z" style="fill:#263238"></path><path d="M218.89,155.37a65.91,65.91,0,0,0-7.57-.1c-1.26.06-2.51.19-3.76.36-.6.08-1.2.17-1.79.27s-1.3.3-2,.4c-.07,0-.07.12,0,.11.62-.08,1.26,0,1.89-.08l1.88-.12,3.77-.22c2.52-.18,5-.33,7.55-.41C219,155.57,219,155.38,218.89,155.37Z" style="fill:#263238"></path><path d="M182.22,115.77c-16.85,21.06-36.08,63.48-30.6,71,6.11,8.37,29.55-21.13,29.26-22.66-.22-1.16,6.2-26.31,11.17-44.64S186.39,110.57,182.22,115.77Z" style="fill:#eb9481"></path><path d="M181.06,164.11c.5-2.67,9.37-35.89,11.79-46.35,2.17-9.38,0-12.88-7-6.4-13,11.92-37.23,46.69-40.45,63.59-3.09,16.29,10.49,16,20.6,7.51C174.23,175.49,181.06,164.11,181.06,164.11Z" style="fill:#FFC727"></path><path d="M179.93,168.4q4.08-18.84,9.61-37.34-4.06,18.85-9.61,37.34Z" style="fill:#263238"></path><path d="M187.81,138.32a9.57,9.57,0,0,1,2.29-4.54,7.71,7.71,0,0,1-2.29,4.54Z" style="fill:#263238"></path><rect x="216.74" y="179.12" width="69.58" height="3.34" style="fill:#455a64"></rect><rect x="216.74" y="179.12" width="32.58" height="3.34" style="fill:#a6a6a6"></rect><polygon points="247.93 182.46 320.53 182.46 330.79 133.15 258.19 133.15 247.93 182.46" style="fill:#a6a6a6"></polygon><polygon points="251.22 182.46 323.82 182.46 334.08 133.15 261.48 133.15 251.22 182.46" style="fill:#c7c7c7"></polygon><path d="M287.81,158.9a4.27,4.27,0,0,0,4.33,4.84,5.5,5.5,0,0,0,5.35-4.84,4.28,4.28,0,0,0-4.33-4.84A5.51,5.51,0,0,0,287.81,158.9Z" style="fill:#ebebeb"></path><path d="M151.65,185.24c6.26,4.21,17.66,1.07,47.1-4.15,4.07-.72,6.71-30.84,2.32-30.29-5.53.69-26.84,4.56-28.36,5C159.87,159.89,147.4,182.39,151.65,185.24Z" style="fill:#eb9481"></path><path d="M196.78,152.82s10.25-5.7,16.56-7A41.28,41.28,0,0,1,233.13,147c6.92,2.12,22.19,12,20.11,16.93-1.9,4.43-17-6.49-17-6.49s17.23,8.6,14,13.51-20.06-8.75-20.06-8.75,17.51,9.23,13.34,13.77c-3.14,3.43-19.06-8.1-19.06-8.1s15,8,11.91,11.7c-3.4,4.06-18.76-5.67-18.76-5.67-9.41,8-17.16,8-22.67,7.29C193.59,181,196.78,152.82,196.78,152.82Z" style="fill:#eb9481"></path><path d="M230.48,154.05c2.06.93,4.15,1.87,6.12,3s3.91,2.3,5.76,3.6a38.78,38.78,0,0,1,6.75,5.73c-3.87-3.58-10.86-7.68-12.83-8.8s-3.88-2.33-5.84-3.44A0,0,0,1,1,230.48,154.05Z" style="fill:#263238"></path><path d="M226.32,161.09c2.58,1.31,5.19,2.51,7.71,3.93s4.77,3,7.17,4.57c.19.12.06.18-.13.07-2.47-1.49-4.86-2.68-7.35-4.14s-4.91-3-7.44-4.38C226.24,161.12,226.28,161.07,226.32,161.09Z" style="fill:#263238"></path><path d="M221.66,166.49A64.69,64.69,0,0,1,233,173.41c.18.13,0,.19-.18.07-3.73-2.38-6.63-4.26-11.21-6.85C221.53,166.59,221.58,166.45,221.66,166.49Z" style="fill:#263238"></path><path d="M195.09,148.57,183,190.7s-30.13.53-35-4.6c-3.48-3.67,10.1-25.35,24.18-30.29Z" style="fill:#FFC727"></path><path d="M157.63,167.53c1.32-2.63,6.43-8.77,14.53-11.75.07,0,.13.08.06.12-5.82,2.8-13,9.27-14.49,11.69C157.69,167.66,157.59,167.59,157.63,167.53Z" style="fill:#263238"></path><path d="M177,184.77c.85-4.15,1.92-8.25,3-12.35s2.15-8.21,3.33-12.28c.67-2.3,1.32-4.61,2.07-6.89,0-.06.12,0,.11,0-.84,4.15-1.9,8.26-3,12.36s-2.14,8.21-3.28,12.3c-.64,2.31-1.32,4.61-2.07,6.88C177.12,184.93,176.93,184.89,177,184.77Z" style="fill:#263238"></path><path d="M195,148.22a36.09,36.09,0,0,0-4.78,1.24q-2.37.71-4.72,1.49c-3.12,1-9.84,2.84-15.15,5.6-.06,0,.39.16.44.13,2.46-1.44,22.47-7.21,24-7.87a2.41,2.41,0,0,0,0,.38c0,.09.13.15.18.06s.18-.45.28-.68A.24.24,0,0,0,195,148.22Z" style="fill:#263238"></path><path d="M185.16,183.56c-.62,2.48-1.29,4.94-2,7.39-2.42,0-4.84,0-7.25-.08-7-.23-14.15-.54-21.06-2,7.94.94,20,1.21,28.12,1.59l-.25.18q1.17-3.56,2.43-7.07Z" style="fill:#263238"></path><path d="M192.48,110.46c.37,1.26,6.88,9.27,12.71,8.7,1.89-.18,1.34-10.6,1.34-10.6l.13-.78,1.87-10.9-13.05-7.49-1.88-1s-.31,3-.67,6.78c0,.17,0,.34-.05.53s0,.41-.07.61c-.06.56-.12,1.14-.16,1.71s-.08.86-.1,1.31-.06.91-.1,1.37A73.26,73.26,0,0,0,192.48,110.46Z" style="fill:#eb9481"></path><path d="M192.93,95.18a22.17,22.17,0,0,0,13.73,12.6l1.87-10.9-13.05-7.49-1.88-1S193.29,91.42,192.93,95.18Z" style="fill:#263238"></path><path d="M190.5,88.19c-4.42-.16-14.77,4.86-17.39,11.19s-.63,15.44,1.41,16,10-1.62,15-5.7S192.67,88.27,190.5,88.19Z" style="fill:#263238"></path><path d="M190.51,88.21c.14-.06.11-.29,0-.27-3.73.59-7.48,2.57-10.83,4.24-2.71,1.34-5.46,2.85-7.41,5.22a10.15,10.15,0,0,0-2.25,8.18c.48,3.3,1.68,7.17,3.81,9.78.07.07.23,0,.17-.09-2.84-5.87-5.72-13.15-.34-18.49C178.17,92.24,184.77,90.6,190.51,88.21Z" style="fill:#263238"></path><path d="M174.84,113.64c-3.62,1.16-12,10-12.29,17.34s7.3,16.73,9.26,17.15,8.92-7.84,10.68-13.3c1.18-3.64-.94-7.25-2.45-11C177.8,118.41,175.41,113.46,174.84,113.64Z" style="fill:#263238"></path><path d="M184.55,133.54c-.21-7.39-5.58-13.76-9.22-19.81,0-.06-.15,0-.12.06,2.5,6,7.27,10.89,8.57,17.39.76,3.85.11,7.89-2.64,10.85-2.38,2.56-5.68,4.13-8.67,5.85-.2.12,0,.4.19.3C178.66,144.92,184.77,141.17,184.55,133.54Z" style="fill:#263238"></path><path d="M174.16,114.45c.17-.12,0-.39-.18-.27-4.82,3.46-10.5,8.27-12.35,14.13-2,6.35,2.18,11.85,5.86,16.58,0,.06.14,0,.09-.07-3.65-4.81-7.69-10.87-5.24-17.15C164.44,122.27,169.64,117.81,174.16,114.45Z" style="fill:#263238"></path><path d="M172.2,147.86c2.63,1.06,6.7,5,8,9.95,2.26,8.48,5.34,6.48,15,7.87,8.14,1.17,10.68,9.91,6.86,14.71,0,0,1.93-5.72-3.68-7.9-6.71-2.6-20.71,5.53-28.88-2.82C158.91,158.87,172.2,147.86,172.2,147.86Z" style="fill:#263238"></path><path d="M176,151.52c-.11-.11.07-.31.19-.2a12.69,12.69,0,0,1,2.94,3.5c1,1.74,1.21,3.71,2.06,5.5,2.17,4.57,7.85,3.86,12,3.75,5.58-.13,10.36,2.83,11.26,8.63a.07.07,0,0,1-.13,0,9.94,9.94,0,0,0-6.68-7.82c-3.37-1-7,0-10.4-.47-2.36-.34-4.74-1.1-6-3.24a19.29,19.29,0,0,1-1.41-3.85A13.82,13.82,0,0,0,176,151.52Z" style="fill:#263238"></path><path d="M170.84,149.05c0-.05.13,0,.09.07-2.85,3.41-5.88,6.84-6.35,11.46-.5,5,2.48,9.62,6.6,12.2,4.61,2.89,9.06.87,13.77-.53,3.4-1,6.9-1.75,10.42-.89.11,0,.07.2,0,.19-5.61-.75-10.47,1.36-15.78,2.75-4.33,1.13-7.94-.07-11.1-3.22C161.49,164.14,164.49,155.17,170.84,149.05Z" style="fill:#263238"></path><path d="M186.53,84.9c-1.45-1.28-3.41,1-1.95,2.28S188,86.18,186.53,84.9Z" style="fill:#FFC727"></path><path d="M188.14,87.19c-1.45-1.28-3.41,1-2,2.28S189.59,88.47,188.14,87.19Z" style="fill:#FFC727"></path><path d="M190.13,89.19c-1.45-1.28-3.41,1-2,2.28A1.5,1.5,0,0,0,190.13,89.19Z" style="fill:#FFC727"></path><path d="M192.31,90.86c-1.45-1.28-3.41,1-2,2.28S193.77,92.15,192.31,90.86Z" style="fill:#FFC727"></path><path d="M194.8,92.16c-1.45-1.28-3.41,1-2,2.29S196.26,93.45,194.8,92.16Z" style="fill:#FFC727"></path><path d="M197.38,93c-1.45-1.28-3.41,1-1.95,2.28S198.84,94.25,197.38,93Z" style="fill:#FFC727"></path><path d="M221.11,77.23C225.79,96.07,215.05,101,211,102c-3.68.91-16.34,3.56-22.94-14.69s.67-26.39,9-28.92S216.43,58.4,221.11,77.23Z" style="fill:#eb9481"></path><path d="M190.5,88.9c3.91-1.19,1.47-10.22,1.47-10.22s6.27-3.17,7.7-8.47c0,0-.7,4.43-2.83,6.79-.36.4,12.7-4.88,11-15.57,0,0,4.94,9.61,11.69,9.91.32,0-3.33-7.43-6.56-9.84a30.62,30.62,0,0,0-4.46-3A20.1,20.1,0,0,0,193.3,59c-7.92,3.62-10.8,13.88-10.39,17.63C183.72,84,188.65,89.47,190.5,88.9Z" style="fill:#263238"></path><path d="M197.33,77.1c7.25-2.46,11.72-8.85,10.15-16.53,0-.19.25-.27.33-.1,3.21,7.32-3.39,15.3-10.5,16.78C197.13,77.29,197.16,77.16,197.33,77.1Z" style="fill:#263238"></path><path d="M190.4,88.48c3.38-3.2,2.85-7.38,2-11.53,0-.12.18-.19.22-.06,1.22,4,1.91,9-1.94,11.88A.19.19,0,0,1,190.4,88.48Z" style="fill:#263238"></path><path d="M207.43,59.86s0-.06.07,0c2.12,3.94,4.37,11,10.06,10.48a.12.12,0,0,1,0,.23C212.17,71.53,208.12,64.38,207.43,59.86Z" style="fill:#263238"></path><path d="M215.52,75c-.46,0-.88,0-1.33,0a2.22,2.22,0,0,1-1.37-.24.7.7,0,0,1-.18-.82,1.7,1.7,0,0,1,1.55-.75,2.51,2.51,0,0,1,1.73.52A.74.74,0,0,1,215.52,75Z" style="fill:#263238"></path><path d="M202.61,77.9a13.37,13.37,0,0,0,1.22-.55,2.18,2.18,0,0,0,1.12-.8.68.68,0,0,0-.18-.82,1.68,1.68,0,0,0-1.72,0,2.47,2.47,0,0,0-1.34,1.2A.73.73,0,0,0,202.61,77.9Z" style="fill:#263238"></path><path d="M206.63,81.85s-.09.09-.07.14c.35,1.26.55,2.77-.5,3.48,0,0,0,.09,0,.07C207.45,85,207.17,83,206.63,81.85Z" style="fill:#263238"></path><path d="M205.16,80.8c-2.09.36-1.23,4.51.71,4.18S206.91,80.51,205.16,80.8Z" style="fill:#263238"></path><path d="M204.39,81.19c-.31.31-.58.8-1,.93s-1-.2-1.39-.55c0,0-.07,0-.06.07.16.79.63,1.55,1.51,1.49s1.21-.87,1.24-1.72C204.69,81.26,204.52,81.07,204.39,81.19Z" style="fill:#263238"></path><path d="M213.71,80.05s.11,0,.12.09c.21,1.3.68,2.75,1.93,2.94,0,0,.05.08,0,.08C214.3,83.24,213.7,81.31,213.71,80.05Z" style="fill:#263238"></path><path d="M214.59,78.48c2-.57,3,3.55,1.14,4.08S212.88,79,214.59,78.48Z" style="fill:#263238"></path><path d="M215.52,78.54c.37.14.79.46,1.19.39s.68-.6.87-1.1c0,0,.06,0,.07,0,.21.79.15,1.67-.57,2s-1.33-.25-1.71-1C215.3,78.73,215.36,78.49,215.52,78.54Z" style="fill:#263238"></path><path d="M209.07,92.26c.36.25.73.62,1.21.59a3.66,3.66,0,0,0,1.34-.55s.09,0,.07.06a1.77,1.77,0,0,1-1.53,1,1.41,1.41,0,0,1-1.21-1C208.92,92.27,209,92.22,209.07,92.26Z" style="fill:#263238"></path><path d="M213.57,89.08a5.36,5.36,0,0,1-1.6,2.19,2.45,2.45,0,0,1-1.38.49c-1.1,0-1.39-.91-1.43-1.76a5.41,5.41,0,0,1,.11-1.35A7,7,0,0,0,213.57,89.08Z" style="fill:#263238"></path><path d="M212,91.27a2.45,2.45,0,0,1-1.38.49c-1.1,0-1.39-.91-1.43-1.76A2.49,2.49,0,0,1,212,91.27Z" style="fill:#ff9cbd"></path><path d="M213.42,86.45s.68,1.86.88,2.76c0,.08-.19.17-.5.26h0a4.41,4.41,0,0,1-4.53-.69.1.1,0,0,1,.11-.16,6.63,6.63,0,0,0,4.17.27c0-.27-1.28-3.15-1.14-3.19a7.85,7.85,0,0,1,2.16,0c-1.32-3.91-3.25-7.58-4.5-11.5a.13.13,0,0,1,.23-.11,66.9,66.9,0,0,1,5.36,12.18C215.82,86.79,213.81,86.52,213.42,86.45Z" style="fill:#263238"></path><path d="M191.78,87.88s-5.13-5.32-7.6-3.39,2,10.09,5.41,10.77a3.28,3.28,0,0,0,4.06-2.43Z" style="fill:#eb9481"></path><path d="M185.53,86.8c-.05,0-.05.07,0,.08,2.37.55,3.87,2.44,5,4.46a1.81,1.81,0,0,0-2.75-.07c-.06,0,0,.14.08.11a2,2,0,0,1,2.3.35,9.82,9.82,0,0,1,1.33,1.61c.13.18.48,0,.37-.2l0,0C191.47,90.23,188.63,86.6,185.53,86.8Z" style="fill:#263238"></path></g><g id="freepik--paper-plane--inject-47"><path d="M124.3,253.6h-1.2v-.75h1.19l2.8,0v.75Zm-6.21-.11c-1.36-.05-2.69-.12-4-.2l0-.75c1.31.08,2.64.15,4,.2Zm14-.06,0-.75c1.31-.05,2.64-.12,4-.21l.05.75C134.77,253.31,133.43,253.38,132.12,253.43Zm-23-.55c-1.36-.13-2.7-.28-4-.45l.1-.75c1.28.17,2.61.32,4,.46Zm32,0-.06-.75c1.31-.11,2.64-.24,4-.38l.08.74C143.76,252.61,142.43,252.73,141.11,252.85Zm9-1-.1-.75,4-.54.11.74C152.71,251.54,151.39,251.72,150.08,251.89Zm-49.93-.22c-1.34-.23-2.67-.49-3.94-.76l.15-.73c1.27.27,2.59.52,3.91.76ZM159,250.58l-.12-.74,3.94-.69.13.74Zm-67.66-.86c-1.33-.36-2.62-.75-3.85-1.16l.23-.71c1.22.41,2.51.79,3.81,1.15Zm76.53-.77-.15-.74c1.29-.26,2.6-.53,3.91-.82l.16.74C170.46,248.41,169.16,248.69,167.86,249Zm8.8-1.93-.17-.73c1.29-.3,2.58-.62,3.88-.94l.18.73C179.25,246.4,178,246.72,176.66,247Zm-93.89-.21c-1.28-.54-2.51-1.11-3.65-1.71l.34-.66c1.13.58,2.34,1.14,3.6,1.67Zm102.63-2-.19-.73c1.27-.34,2.56-.69,3.85-1.06l.2.72C188,244.12,186.68,244.47,185.4,244.82ZM74.79,242.51A26.71,26.71,0,0,1,71.63,240l.51-.55a27.26,27.26,0,0,0,3.08,2.47Zm119.28-.16-.22-.71c1.27-.38,2.54-.78,3.82-1.18l.23.72Zm8.59-2.71-.24-.71c1.26-.41,2.52-.84,3.79-1.28l.24.71C205.18,238.8,203.92,239.23,202.66,239.64Zm8.51-2.94-.25-.71,3.75-1.38.26.71C213.68,235.79,212.42,236.25,211.17,236.7Zm-142.79-.62a13.23,13.23,0,0,1-1.63-3.75l.72-.19A13.1,13.1,0,0,0,69,235.69Zm151.23-2.55-.27-.7,3.71-1.47.28.7Zm8.35-3.38-.29-.69,3.68-1.56.3.69ZM67.23,227.33l-.74-.1a18.27,18.27,0,0,1,1-3.92l.7.26A17.53,17.53,0,0,0,67.23,227.33Zm169-.75-.31-.69.66-.3c1-.44,2-.9,3-1.36l.32.68-3,1.37Zm8.16-3.84-.34-.68q1.8-.88,3.57-1.8l.35.66C246.78,221.54,245.58,222.14,244.39,222.74Zm-174-3.59-.64-.38A38,38,0,0,1,72,215.42l.6.45A38.75,38.75,0,0,0,70.37,219.15Zm182-.58-.36-.66c1.17-.63,2.34-1.28,3.5-1.93l.36.65C254.74,217.29,253.57,217.94,252.4,218.57Zm7.84-4.45-.38-.64c1.15-.68,2.29-1.36,3.43-2.06l.39.64C262.54,212.76,261.39,213.44,260.24,214.12ZM75.75,212l-.56-.5c.85-.95,1.78-1.94,2.76-2.92l.54.53C77.51,210.11,76.59,211.09,75.75,212Zm192.17-2.61-.4-.63,3.36-2.16.41.62ZM82.1,205.71l-.5-.56c1-.87,2-1.76,3-2.64l.48.57C84.08,204,83.06,204.84,82.1,205.71Zm193.35-1.23-.42-.62c1.1-.74,2.19-1.49,3.28-2.25l.43.61C277.65,203,276.55,203.74,275.45,204.48ZM89,199.94l-.46-.59c1-.82,2.11-1.63,3.19-2.44l.45.6Q90.55,198.71,89,199.94Zm193.84-.61-.44-.61c1.08-.78,2.16-1.56,3.23-2.35l.45.6ZM96.21,194.58l-.43-.61q1.64-1.16,3.3-2.28l.42.62C98.4,193.06,97.3,193.81,96.21,194.58ZM290.08,194l-.46-.59c1.07-.81,2.12-1.62,3.17-2.44l.46.59C292.2,192.35,291.14,193.16,290.08,194Zm-186.41-4.42-.4-.63c1.12-.73,2.25-1.45,3.39-2.15l.4.63C105.92,188.11,104.8,188.82,103.67,189.55Zm193.52-1.12-.47-.58,3.11-2.51.47.58Zm-185.87-3.64-.38-.64q1.73-1,3.45-2l.38.65C113.62,183.42,112.47,184.1,111.32,184.79Zm192.84-2.06-.48-.58c1-.86,2.05-1.72,3.05-2.58l.49.57Zm-185-2.45-.37-.65c1.18-.66,2.36-1.3,3.52-1.93l.35.66C121.47,179,120.3,179.63,119.12,180.28ZM311,176.86l-.5-.56c1-.88,2-1.77,3-2.65l.5.56C313,175.09,312,176,311,176.86ZM127,176l-.34-.66,3.57-1.83.34.67C129.44,174.78,128.25,175.38,127,176Zm8.06-4-.32-.67c1.26-.6,2.47-1.17,3.64-1.7l.31.68C137.57,170.83,136.35,171.4,135.1,172Zm182.63-1.13-.51-.56c1-.9,2-1.81,2.95-2.71l.51.55ZM143.31,168.3l-.29-.7c1.15-.48,2.22-.91,3.21-1.28l.26.7C145.52,167.39,144.45,167.82,143.31,168.3Zm181-3.59-.52-.54,2.89-2.77.52.54Zm6.47-6.27-.53-.53c1-.95,1.91-1.89,2.84-2.83l.53.53C332.71,156.55,331.76,157.49,330.8,158.44Zm6.36-6.39-.54-.53c.95-1,1.87-1.92,2.78-2.87l.54.52Zm6.23-6.51-.54-.52,2.73-2.92.55.51Zm6.12-6.63-.55-.5c.92-1,1.81-2,2.67-3l.56.5C351.33,136.9,350.43,137.89,349.51,138.91Zm6-6.74-.56-.49c.91-1.05,1.79-2.06,2.62-3l.57.48C357.29,130.11,356.42,131.12,355.5,132.17Zm5.87-6.86-.58-.48c.93-1.11,1.78-2.14,2.56-3.09l.58.47C363.15,123.16,362.3,124.2,361.37,125.31Zm5.71-7-.59-.47c1.62-2,2.47-3.17,2.47-3.17l.6.45S368.71,116.25,367.08,118.31Z" style="fill:#263238"></path><polygon points="371.34 93.35 368.47 116.33 381.79 99.95 438.63 63.26 371.34 93.35" style="fill:#FFC727"></polygon><polygon points="371.34 93.35 368.47 116.33 381.79 99.95 438.63 63.26 371.34 93.35" style="fill:#fff;opacity:0.4"></polygon><polygon points="385 104.42 368.47 116.33 381.79 99.95 385 104.42" style="fill:#FFC727"></polygon><polygon points="385 104.42 368.47 116.33 381.79 99.95 385 104.42" style="fill:#fff;opacity:0.30000000000000004"></polygon><polygon points="381.79 99.95 438.63 63.26 399.15 124.53 381.79 99.95" style="fill:#FFC727"></polygon><polygon points="381.79 99.95 438.63 63.26 399.15 124.53 381.79 99.95" style="fill:#fff;opacity:0.7000000000000001"></polygon><polygon points="371.34 93.35 341.76 82.62 438.63 63.26 371.34 93.35" style="fill:#FFC727"></polygon><polygon points="371.34 93.35 341.76 82.62 438.63 63.26 371.34 93.35" style="fill:#fff;opacity:0.7000000000000001"></polygon></g><g id="freepik--speech-bubble--inject-47"><path d="M123.91,53.46a27.4,27.4,0,0,0,43.74,22l13.43,3.43-5.59-12.5a27.41,27.41,0,1,0-51.58-12.93Z" style="fill:#fff"></path><path d="M123.91,53.46c.43,22.85,25.52,34.91,43.83,21.66l13.45,3.35-.51.6-5.63-12.48-.09-.22c8.46-15.23-.13-35-17-39.21-16.95-4.62-34.1,8.77-34,26.3Zm0,0c.07-23.33,27.28-36.1,45.3-21.25,9.95,8.06,13,23.2,6.71,34.41v-.43l5.55,12.52.37.84-.87-.23-13.41-3.51c-17.17,13-43.51.78-43.66-22.35Z" style="fill:#263238"></path><polygon points="146.94 70.27 134.65 57.83 138.78 53.76 145.95 61.02 160.86 37.65 165.75 40.77 146.94 70.27" style="fill:#FFC727"></polygon></g></svg>
